<?xml version="1.0" encoding="UTF-8"?>
<svg version="1.1" xmlns="http://www.w3.org/2000/svg" width="40" height="40">
<path d="M0 0 C0.33 0.99 0.66 1.98 1 3 C2.32303717 3.3721042 3.65737935 3.70630173 5 4 C5.33 4.66 5.66 5.32 6 6 C6.33 5.67 6.66 5.34 7 5 C8.51928038 4.92820036 10.04167482 4.91607993 11.5625 4.9375 C12.38878906 4.94652344 13.21507812 4.95554687 14.06640625 4.96484375 C14.70449219 4.97644531 15.34257812 4.98804688 16 5 C16 5.66 16 6.32 16 7 C18.97 7 21.94 7 25 7 C25.33 8.98 25.66 10.96 26 13 C21.81686262 14.6537985 19.32670217 15.26635186 15 14 C13.741875 13.649375 12.48375 13.29875 11.1875 12.9375 C10.135625 12.628125 9.08375 12.31875 8 12 C8 11.01 8 10.02 8 9 C6.8553125 10.485 6.8553125 10.485 5.6875 12 C4.38671875 13.6875 4.38671875 13.6875 3 15 C2.01 15 1.02 15 0 15 C0 10.05 0 5.1 0 0 Z M3 7 C3 8.32 3 9.64 3 11 C3.66 11 4.32 11 5 11 C5 9.68 5 8.36 5 7 C4.34 7 3.68 7 3 7 Z " fill="#151211" transform="translate(13,11)"/>
<path d="M0 0 C2.97 0 5.94 0 9 0 C8.67 0.99 8.34 1.98 8 3 C7.83780264 6.37010067 7.70375141 9.7338126 7.65820312 13.10742188 C7.51858448 16.61087575 7.26118443 18.65266287 5.12890625 21.48828125 C2.55146212 23.31850305 1.09534907 23.34392767 -2 23 C-1.67 21.68 -1.34 20.36 -1 19 C-0.34 19 0.32 19 1 19 C1.02697137 16.39576408 1.04682489 13.79180756 1.0625 11.1875 C1.07087891 10.44951172 1.07925781 9.71152344 1.08789062 8.95117188 C1.10259828 5.70077932 1.03531702 3.10595105 0 0 Z " fill="#141311" transform="translate(5,8)"/>
<path d="M0 0 C4 1 4 1 4 1 Z " fill="#161614" transform="translate(4,32)"/>
<path d="M0 0 C4 1 4 1 4 1 Z " fill="#161312" transform="translate(34,16)"/>
<path d="M0 0 C3 1 3 1 3 1 Z " fill="#171513" transform="translate(29,27)"/>
<path d="M0 0 C3 1 3 1 3 1 Z " fill="#141110" transform="translate(22,25)"/>
<path d="M0 0 C3 1 3 1 3 1 Z " fill="#151212" transform="translate(30,16)"/>
<path d="" fill="#191615" transform="translate(0,0)"/>
<path d="M0 0 C2 1 2 1 2 1 Z " fill="#13110F" transform="translate(4,25)"/>
<path d="M0 0 C2 1 2 1 2 1 Z " fill="#171412" transform="translate(23,14)"/>
<path d="" fill="#161716" transform="translate(0,0)"/>
<path d="" fill="#192724" transform="translate(0,0)"/>
<path d="" fill="#191B1B" transform="translate(0,0)"/>
<path d="" fill="#171614" transform="translate(0,0)"/>
<path d="" fill="#131210" transform="translate(0,0)"/>
<path d="" fill="#151110" transform="translate(0,0)"/>
<path d="" fill="#181613" transform="translate(0,0)"/>
<path d="" fill="#1A1A16" transform="translate(0,0)"/>
<path d="" fill="#181715" transform="translate(0,0)"/>
<path d="" fill="#151210" transform="translate(0,0)"/>
<path d="" fill="#1D191B" transform="translate(0,0)"/>
<path d="" fill="#151212" transform="translate(0,0)"/>
<path d="" fill="#171412" transform="translate(0,0)"/>
<path d="" fill="#121311" transform="translate(0,0)"/>
<path d="" fill="#1C1A1B" transform="translate(0,0)"/>
<path d="" fill="#151719" transform="translate(0,0)"/>
</svg>
