<svg width="500" height="350" viewBox="0 0 500 350" fill="none" xmlns="http://www.w3.org/2000/svg">
  <defs>
    <linearGradient id="aboutGradient" x1="0%" y1="0%" x2="100%" y2="100%">
      <stop offset="0%" style="stop-color:#f8fafc;stop-opacity:1" />
      <stop offset="100%" style="stop-color:#e2e8f0;stop-opacity:1" />
    </linearGradient>
  </defs>
  
  <!-- Background -->
  <rect width="500" height="350" fill="url(#aboutGradient)" rx="10"/>
  
  <!-- Office scene -->
  <g transform="translate(50, 50)">
    <!-- Conference table -->
    <ellipse cx="200" cy="200" rx="150" ry="60" fill="#8b5a2b" opacity="0.8"/>
    <ellipse cx="200" cy="195" rx="150" ry="60" fill="#a0672f"/>
    
    <!-- Chairs around table -->
    <g fill="#374151">
      <!-- Top chairs -->
      <rect x="120" y="140" width="25" height="35" rx="12"/>
      <rect x="175" y="135" width="25" height="35" rx="12"/>
      <rect x="230" y="140" width="25" height="35" rx="12"/>
      
      <!-- Bottom chairs -->
      <rect x="120" y="220" width="25" height="35" rx="12"/>
      <rect x="175" y="225" width="25" height="35" rx="12"/>
      <rect x="230" y="220" width="25" height="35" rx="12"/>
      
      <!-- Side chairs -->
      <rect x="70" y="180" width="35" height="25" rx="12"/>
      <rect x="295" y="180" width="35" height="25" rx="12"/>
    </g>
    
    <!-- Documents on table -->
    <g fill="white" opacity="0.9">
      <rect x="160" y="180" width="30" height="20" rx="2"/>
      <rect x="200" y="175" width="35" height="25" rx="2"/>
      <rect x="170" y="205" width="25" height="15" rx="2"/>
    </g>
    
    <!-- Laptop on table -->
    <rect x="220" y="185" width="40" height="25" fill="#1f2937" rx="2"/>
    <rect x="222" y="187" width="36" height="20" fill="#3b82f6" rx="1"/>
    
    <!-- Presentation screen -->
    <rect x="320" y="80" width="80" height="60" fill="#1f2937" rx="4"/>
    <rect x="325" y="85" width="70" height="50" fill="#f3f4f6" rx="2"/>
    
    <!-- Chart on screen -->
    <g transform="translate(335, 95)">
      <rect x="5" y="25" width="6" height="15" fill="#3b82f6"/>
      <rect x="15" y="20" width="6" height="20" fill="#10b981"/>
      <rect x="25" y="15" width="6" height="25" fill="#8b5cf6"/>
      <rect x="35" y="10" width="6" height="30" fill="#f59e0b"/>
      <rect x="45" y="18" width="6" height="22" fill="#ef4444"/>
    </g>
    
    <!-- Stand for screen -->
    <rect x="357" y="140" width="6" height="40" fill="#374151"/>
    <ellipse cx="360" cy="185" rx="20" ry="8" fill="#374151"/>
    
    <!-- People silhouettes -->
    <g fill="#64748b" opacity="0.6">
      <!-- Person 1 -->
      <circle cx="130" cy="130" r="8"/>
      <rect x="122" y="138" width="16" height="20" rx="8"/>
      
      <!-- Person 2 -->
      <circle cx="185" cy="125" r="8"/>
      <rect x="177" y="133" width="16" height="20" rx="8"/>
      
      <!-- Person 3 -->
      <circle cx="240" cy="130" r="8"/>
      <rect x="232" y="138" width="16" height="20" rx="8"/>
    </g>
    
    <!-- Windows in background -->
    <g transform="translate(0, 20)">
      <rect x="10" y="10" width="40" height="60" fill="rgba(59, 130, 246, 0.1)" stroke="rgba(59, 130, 246, 0.3)" stroke-width="2" rx="4"/>
      <rect x="15" y="15" width="30" height="25" fill="rgba(135, 206, 235, 0.3)"/>
      <rect x="15" y="45" width="30" height="20" fill="rgba(135, 206, 235, 0.3)"/>
      
      <!-- Window frame lines -->
      <line x1="30" y1="15" x2="30" y2="65" stroke="rgba(59, 130, 246, 0.3)" stroke-width="1"/>
      <line x1="15" y1="40" x2="45" y2="40" stroke="rgba(59, 130, 246, 0.3)" stroke-width="1"/>
    </g>
    
    <!-- Office plants -->
    <g fill="#10b981">
      <ellipse cx="380" cy="180" rx="8" ry="15" opacity="0.7"/>
      <ellipse cx="385" cy="175" rx="6" ry="12" opacity="0.6"/>
      <rect x="377" y="185" width="6" height="15" fill="#8b5a2b"/>
      
      <ellipse cx="20" cy="250" rx="10" ry="18" opacity="0.7"/>
      <ellipse cx="25" cy="245" rx="8" ry="15" opacity="0.6"/>
      <rect x="17" y="255" width="6" height="20" fill="#8b5a2b"/>
    </g>
  </g>
  
  <!-- Professional overlay elements -->
  <circle cx="420" cy="80" r="30" fill="rgba(59, 130, 246, 0.1)" opacity="0.5"/>
  <circle cx="80" cy="300" r="25" fill="rgba(139, 92, 246, 0.1)" opacity="0.4"/>
</svg>
