<svg width="600" height="400" viewBox="0 0 600 400" fill="none" xmlns="http://www.w3.org/2000/svg">
  <defs>
    <linearGradient id="heroGradient" x1="0%" y1="0%" x2="100%" y2="100%">
      <stop offset="0%" style="stop-color:#1e40af;stop-opacity:0.9" />
      <stop offset="50%" style="stop-color:#3b82f6;stop-opacity:0.8" />
      <stop offset="100%" style="stop-color:#8b5cf6;stop-opacity:0.9" />
    </linearGradient>
    <pattern id="grid" width="40" height="40" patternUnits="userSpaceOnUse">
      <path d="M 40 0 L 0 0 0 40" fill="none" stroke="rgba(255,255,255,0.1)" stroke-width="1"/>
    </pattern>
  </defs>
  
  <!-- Background -->
  <rect width="600" height="400" fill="url(#heroGradient)"/>
  <rect width="600" height="400" fill="url(#grid)"/>
  
  <!-- Building/Office illustration -->
  <g transform="translate(100, 80)">
    <!-- Main building -->
    <rect x="0" y="100" width="80" height="200" fill="rgba(255,255,255,0.9)" rx="4"/>
    <rect x="100" y="50" width="100" height="250" fill="rgba(255,255,255,0.95)" rx="4"/>
    <rect x="220" y="80" width="80" height="220" fill="rgba(255,255,255,0.9)" rx="4"/>
    <rect x="320" y="120" width="60" height="180" fill="rgba(255,255,255,0.85)" rx="4"/>
    
    <!-- Windows -->
    <g fill="rgba(30,64,175,0.3)">
      <!-- Building 1 windows -->
      <rect x="10" y="120" width="15" height="20" rx="2"/>
      <rect x="30" y="120" width="15" height="20" rx="2"/>
      <rect x="55" y="120" width="15" height="20" rx="2"/>
      <rect x="10" y="160" width="15" height="20" rx="2"/>
      <rect x="30" y="160" width="15" height="20" rx="2"/>
      <rect x="55" y="160" width="15" height="20" rx="2"/>
      
      <!-- Building 2 windows -->
      <rect x="115" y="80" width="15" height="20" rx="2"/>
      <rect x="140" y="80" width="15" height="20" rx="2"/>
      <rect x="165" y="80" width="15" height="20" rx="2"/>
      <rect x="115" y="120" width="15" height="20" rx="2"/>
      <rect x="140" y="120" width="15" height="20" rx="2"/>
      <rect x="165" y="120" width="15" height="20" rx="2"/>
      <rect x="115" y="160" width="15" height="20" rx="2"/>
      <rect x="140" y="160" width="15" height="20" rx="2"/>
      <rect x="165" y="160" width="15" height="20" rx="2"/>
      
      <!-- Building 3 windows -->
      <rect x="235" y="110" width="15" height="20" rx="2"/>
      <rect x="260" y="110" width="15" height="20" rx="2"/>
      <rect x="235" y="150" width="15" height="20" rx="2"/>
      <rect x="260" y="150" width="15" height="20" rx="2"/>
      
      <!-- Building 4 windows -->
      <rect x="335" y="140" width="12" height="18" rx="2"/>
      <rect x="355" y="140" width="12" height="18" rx="2"/>
      <rect x="335" y="180" width="12" height="18" rx="2"/>
      <rect x="355" y="180" width="12" height="18" rx="2"/>
    </g>
    
    <!-- Entrance -->
    <rect x="140" y="260" width="20" height="40" fill="rgba(30,64,175,0.4)" rx="2"/>
  </g>
  
  <!-- Floating elements -->
  <circle cx="450" cy="100" r="40" fill="rgba(255,255,255,0.1)" opacity="0.6"/>
  <circle cx="480" cy="130" r="25" fill="rgba(255,255,255,0.1)" opacity="0.4"/>
  <circle cx="520" cy="80" r="30" fill="rgba(255,255,255,0.1)" opacity="0.5"/>
  
  <!-- Professional icons -->
  <g transform="translate(450, 250)">
    <!-- Chart icon -->
    <rect x="0" y="20" width="8" height="30" fill="rgba(255,255,255,0.8)" rx="1"/>
    <rect x="12" y="10" width="8" height="40" fill="rgba(255,255,255,0.9)" rx="1"/>
    <rect x="24" y="15" width="8" height="35" fill="rgba(255,255,255,0.8)" rx="1"/>
    <rect x="36" y="5" width="8" height="45" fill="rgba(255,255,255,0.9)" rx="1"/>
  </g>
  
  <!-- Success/Growth arrow -->
  <path d="M 500 300 L 540 280 L 530 275 L 540 280 L 530 285" stroke="rgba(255,255,255,0.8)" stroke-width="3" fill="none" stroke-linecap="round"/>
</svg>
