<svg width="300" height="200" viewBox="0 0 300 200" fill="none" xmlns="http://www.w3.org/2000/svg">
  <defs>
    <linearGradient id="educationBg" x1="0%" y1="0%" x2="100%" y2="100%">
      <stop offset="0%" style="stop-color:#8b5cf6;stop-opacity:1" />
      <stop offset="100%" style="stop-color:#7c3aed;stop-opacity:1" />
    </linearGradient>
    <linearGradient id="laptopGrad" x1="0%" y1="0%" x2="100%" y2="100%">
      <stop offset="0%" style="stop-color:#374151;stop-opacity:1" />
      <stop offset="100%" style="stop-color:#6b7280;stop-opacity:1" />
    </linearGradient>
  </defs>
  <rect width="300" height="200" fill="url(#educationBg)"/>
  
  <!-- Laptop base -->
  <rect x="80" y="140" width="140" height="20" rx="10" fill="url(#laptopGrad)"/>
  
  <!-- Laptop screen -->
  <rect x="90" y="60" width="120" height="80" rx="8" fill="#1f2937"/>
  <rect x="95" y="65" width="110" height="70" rx="4" fill="#0f172a"/>
  
  <!-- Screen content - LMS interface -->
  <rect x="100" y="70" width="100" height="15" fill="#8b5cf6" rx="2"/>
  <text x="150" y="80" fill="white" font-family="Arial" font-size="8" font-weight="bold" text-anchor="middle">Learning Portal</text>
  
  <!-- User profile -->
  <circle cx="110" cy="95" r="6" fill="#e5e7eb"/>
  <circle cx="110" cy="93" r="3" fill="#6b7280"/>
  <path d="M105 98 Q110 96 115 98" stroke="#6b7280" stroke-width="1" fill="none"/>
  
  <text x="125" y="95" fill="#e5e7eb" font-family="Arial" font-size="6">Welcome, Sarah</text>
  <text x="125" y="102" fill="#9ca3af" font-family="Arial" font-size="5">Progress: 78%</text>
  
  <!-- Progress bar -->
  <rect x="125" y="105" width="60" height="3" fill="#374151" rx="1"/>
  <rect x="125" y="105" width="47" height="3" fill="#10b981" rx="1"/>
  
  <!-- Course modules -->
  <rect x="105" y="115" width="25" height="8" fill="#3b82f6" rx="2"/>
  <text x="117" y="121" fill="white" font-family="Arial" font-size="4" text-anchor="middle">Math</text>
  
  <rect x="135" y="115" width="25" height="8" fill="#10b981" rx="2"/>
  <text x="147" y="121" fill="white" font-family="Arial" font-size="4" text-anchor="middle">Science</text>
  
  <rect x="165" y="115" width="25" height="8" fill="#f59e0b" rx="2"/>
  <text x="177" y="121" fill="white" font-family="Arial" font-size="4" text-anchor="middle">History</text>
  
  <!-- Live class indicator -->
  <circle cx="190" cy="90" r="4" fill="#ef4444"/>
  <text x="190" y="93" fill="white" font-family="Arial" font-size="3" text-anchor="middle">LIVE</text>
  
  <!-- Books floating around -->
  <rect x="40" y="80" width="15" height="20" fill="#3b82f6" rx="2" transform="rotate(-15 47.5 90)"/>
  <rect x="42" y="82" width="11" height="16" fill="#1e40af" rx="1" transform="rotate(-15 47.5 90)"/>
  
  <rect x="245" y="90" width="15" height="20" fill="#10b981" rx="2" transform="rotate(20 252.5 100)"/>
  <rect x="247" y="92" width="11" height="16" fill="#059669" rx="1" transform="rotate(20 252.5 100)"/>
  
  <rect x="30" y="130" width="15" height="20" fill="#f59e0b" rx="2" transform="rotate(-25 37.5 140)"/>
  <rect x="32" y="132" width="11" height="16" fill="#d97706" rx="1" transform="rotate(-25 37.5 140)"/>
  
  <!-- Graduation cap -->
  <polygon points="150,30 160,35 140,35" fill="#1f2937"/>
  <rect x="145" y="35" width="10" height="8" fill="#1f2937" rx="1"/>
  <rect x="160" y="32" width="15" height="2" fill="#fbbf24" rx="1"/>
  
  <!-- Knowledge icons floating -->
  <circle cx="70" cy="50" r="8" fill="rgba(255,255,255,0.9)" opacity="0.8"/>
  <text x="70" y="54" fill="#8b5cf6" font-family="Arial" font-size="8" text-anchor="middle">📚</text>
  
  <circle cx="230" cy="130" r="8" fill="rgba(255,255,255,0.9)" opacity="0.8"/>
  <text x="230" y="134" fill="#8b5cf6" font-family="Arial" font-size="8" text-anchor="middle">🎓</text>
  
  <circle cx="250" cy="60" r="6" fill="rgba(255,255,255,0.9)" opacity="0.8"/>
  <text x="250" y="63" fill="#8b5cf6" font-family="Arial" font-size="6" text-anchor="middle">💡</text>
  
  <!-- Virtual classroom participants -->
  <rect x="220" y="100" width="50" height="30" fill="rgba(255,255,255,0.1)" rx="4"/>
  <text x="245" y="112" fill="white" font-family="Arial" font-size="6" font-weight="bold" text-anchor="middle">Virtual Class</text>
  <text x="245" y="120" fill="#e5e7eb" font-family="Arial" font-size="5" text-anchor="middle">24 students online</text>
  
  <!-- Notification -->
  <circle cx="195" cy="75" r="3" fill="#ef4444"/>
  <text x="195" y="78" fill="white" font-family="Arial" font-size="2" text-anchor="middle">3</text>
</svg>
