<svg width="300" height="200" viewBox="0 0 300 200" fill="none" xmlns="http://www.w3.org/2000/svg">
  <defs>
    <linearGradient id="webBg" x1="0%" y1="0%" x2="100%" y2="100%">
      <stop offset="0%" style="stop-color:#1e40af;stop-opacity:1" />
      <stop offset="100%" style="stop-color:#3b82f6;stop-opacity:1" />
    </linearGradient>
    <linearGradient id="screenGrad" x1="0%" y1="0%" x2="100%" y2="100%">
      <stop offset="0%" style="stop-color:#0f172a;stop-opacity:1" />
      <stop offset="100%" style="stop-color:#1e293b;stop-opacity:1" />
    </linearGradient>
  </defs>
  <rect width="300" height="200" fill="url(#webBg)"/>
  
  <!-- Browser mockup -->
  <rect x="20" y="20" width="260" height="160" rx="8" fill="white" opacity="0.98"/>
  
  <!-- Browser header -->
  <rect x="20" y="20" width="260" height="30" rx="8 8 0 0" fill="#f1f5f9"/>
  <circle cx="35" cy="35" r="4" fill="#ef4444"/>
  <circle cx="50" cy="35" r="4" fill="#f59e0b"/>
  <circle cx="65" cy="35" r="4" fill="#10b981"/>
  
  <!-- Address bar -->
  <rect x="85" y="28" width="180" height="14" rx="7" fill="white"/>
  <rect x="90" y="31" width="8" height="8" rx="1" fill="#9ca3af"/>
  <text x="105" y="39" fill="#6b7280" font-family="Arial" font-size="8">https://company-dashboard.com</text>
  
  <!-- Main content area -->
  <rect x="25" y="55" width="250" height="120" fill="url(#screenGrad)" rx="4"/>
  
  <!-- Header section -->
  <rect x="35" y="65" width="230" height="25" fill="#1e293b" rx="4"/>
  <rect x="45" y="72" width="60" height="8" fill="#3b82f6" rx="4"/>
  <text x="75" y="79" fill="white" font-family="Arial" font-size="8" font-weight="bold" text-anchor="middle">COMPANY</text>
  
  <!-- Navigation -->
  <rect x="160" y="72" width="25" height="6" fill="#6b7280" rx="3"/>
  <rect x="190" y="72" width="25" height="6" fill="#6b7280" rx="3"/>
  <rect x="220" y="72" width="25" height="6" fill="#6b7280" rx="3"/>
  
  <!-- Hero section -->
  <rect x="35" y="95" width="230" height="35" fill="#374151" rx="4"/>
  <rect x="50" y="105" width="80" height="4" fill="#e5e7eb" rx="2"/>
  <rect x="50" y="115" width="120" height="3" fill="#9ca3af" rx="1"/>
  <rect x="50" y="122" width="60" height="3" fill="#9ca3af" rx="1"/>
  
  <!-- CTA Button -->
  <rect x="180" y="108" width="50" height="12" fill="#3b82f6" rx="6"/>
  <text x="205" y="117" fill="white" font-family="Arial" font-size="6" font-weight="bold" text-anchor="middle">Get Started</text>
  
  <!-- Feature cards -->
  <rect x="35" y="135" width="70" height="30" fill="#4b5563" rx="4"/>
  <rect x="45" y="142" width="50" height="3" fill="#d1d5db" rx="1"/>
  <rect x="45" y="148" width="40" height="2" fill="#9ca3af" rx="1"/>
  <rect x="45" y="153" width="35" height="2" fill="#9ca3af" rx="1"/>
  <circle cx="55" cy="158" r="3" fill="#10b981"/>
  
  <rect x="115" y="135" width="70" height="30" fill="#4b5563" rx="4"/>
  <rect x="125" y="142" width="50" height="3" fill="#d1d5db" rx="1"/>
  <rect x="125" y="148" width="40" height="2" fill="#9ca3af" rx="1"/>
  <rect x="125" y="153" width="35" height="2" fill="#9ca3af" rx="1"/>
  <circle cx="135" cy="158" r="3" fill="#8b5cf6"/>
  
  <rect x="195" y="135" width="70" height="30" fill="#4b5563" rx="4"/>
  <rect x="205" y="142" width="50" height="3" fill="#d1d5db" rx="1"/>
  <rect x="205" y="148" width="40" height="2" fill="#9ca3af" rx="1"/>
  <rect x="205" y="153" width="35" height="2" fill="#9ca3af" rx="1"/>
  <circle cx="215" cy="158" r="3" fill="#f59e0b"/>
  
  <!-- Mobile responsive indicator -->
  <rect x="275" y="30" width="15" height="25" fill="#1f2937" rx="3"/>
  <rect x="277" y="33" width="11" height="19" fill="#374151" rx="2"/>
  <rect x="278" y="35" width="9" height="3" fill="#3b82f6" rx="1"/>
  <rect x="278" y="40" width="6" height="2" fill="#6b7280" rx="1"/>
  <rect x="278" y="44" width="7" height="2" fill="#6b7280" rx="1"/>
  <rect x="278" y="48" width="5" height="2" fill="#6b7280" rx="1"/>
</svg>
