<svg width="300" height="200" viewBox="0 0 300 200" fill="none" xmlns="http://www.w3.org/2000/svg">
  <defs>
    <linearGradient id="manufacturingBg" x1="0%" y1="0%" x2="100%" y2="100%">
      <stop offset="0%" style="stop-color:#f59e0b;stop-opacity:1" />
      <stop offset="100%" style="stop-color:#d97706;stop-opacity:1" />
    </linearGradient>
    <linearGradient id="factoryGrad" x1="0%" y1="0%" x2="100%" y2="100%">
      <stop offset="0%" style="stop-color:#374151;stop-opacity:1" />
      <stop offset="100%" style="stop-color:#6b7280;stop-opacity:1" />
    </linearGradient>
  </defs>
  <rect width="300" height="200" fill="url(#manufacturingBg)"/>
  
  <!-- Factory building -->
  <rect x="50" y="100" width="200" height="80" fill="url(#factoryGrad)" rx="4"/>
  <rect x="60" y="90" width="30" height="90" fill="#4b5563" rx="2"/>
  <rect x="100" y="85" width="25" height="95" fill="#4b5563" rx="2"/>
  <rect x="135" y="80" width="30" height="100" fill="#4b5563" rx="2"/>
  
  <!-- Smokestacks -->
  <rect x="200" y="50" width="8" height="50" fill="#6b7280" rx="1"/>
  <rect x="220" y="45" width="8" height="55" fill="#6b7280" rx="1"/>
  
  <!-- Smoke -->
  <circle cx="204" cy="45" r="4" fill="#9ca3af" opacity="0.7"/>
  <circle cx="206" cy="35" r="5" fill="#9ca3af" opacity="0.5"/>
  <circle cx="202" cy="25" r="6" fill="#9ca3af" opacity="0.3"/>
  
  <circle cx="224" cy="40" r="4" fill="#9ca3af" opacity="0.7"/>
  <circle cx="226" cy="30" r="5" fill="#9ca3af" opacity="0.5"/>
  <circle cx="222" cy="20" r="6" fill="#9ca3af" opacity="0.3"/>
  
  <!-- Factory windows -->
  <rect x="70" y="110" width="8" height="12" fill="#fbbf24" rx="1"/>
  <rect x="85" y="110" width="8" height="12" fill="#fbbf24" rx="1"/>
  <rect x="70" y="130" width="8" height="12" fill="#fbbf24" rx="1"/>
  <rect x="85" y="130" width="8" height="12" fill="#fbbf24" rx="1"/>
  
  <rect x="110" y="105" width="8" height="12" fill="#fbbf24" rx="1"/>
  <rect x="125" y="105" width="8" height="12" fill="#fbbf24" rx="1"/>
  <rect x="110" y="125" width="8" height="12" fill="#fbbf24" rx="1"/>
  <rect x="125" y="125" width="8" height="12" fill="#fbbf24" rx="1"/>
  
  <!-- Control room -->
  <rect x="170" y="110" width="60" height="40" fill="#1f2937" rx="4"/>
  <rect x="175" y="115" width="50" height="30" fill="#374151" rx="2"/>
  
  <!-- Monitors -->
  <rect x="180" y="120" width="18" height="12" fill="#0f172a" rx="1"/>
  <rect x="185" y="125" width="8" height="2" fill="#10b981" rx="1"/>
  <rect x="185" y="128" width="6" height="1" fill="#3b82f6" rx="0.5"/>
  
  <rect x="205" y="120" width="18" height="12" fill="#0f172a" rx="1"/>
  <rect x="210" y="125" width="8" height="2" fill="#ef4444" rx="1"/>
  <rect x="210" y="128" width="6" height="1" fill="#f59e0b" rx="0.5"/>
  
  <!-- Dashboard indicators -->
  <circle cx="185" cy="138" r="2" fill="#10b981"/>
  <circle cx="195" cy="138" r="2" fill="#10b981"/>
  <circle cx="205" cy="138" r="2" fill="#f59e0b"/>
  <circle cx="215" cy="138" r="2" fill="#10b981"/>
  
  <!-- Production line -->
  <rect x="60" y="160" width="150" height="8" fill="#6b7280" rx="4"/>
  
  <!-- Conveyor boxes -->
  <rect x="70" y="155" width="8" height="8" fill="#d97706" rx="1"/>
  <rect x="90" y="157" width="6" height="6" fill="#d97706" rx="1"/>
  <rect x="120" y="156" width="7" height="7" fill="#d97706" rx="1"/>
  <rect x="150" y="158" width="8" height="8" fill="#d97706" rx="1"/>
  <rect x="180" y="157" width="6" height="6" fill="#d97706" rx="1"/>
  
  <!-- Robotic arm -->
  <rect x="140" y="140" width="4" height="20" fill="#9ca3af" rx="2"/>
  <rect x="130" y="140" width="20" height="4" fill="#9ca3af" rx="2"/>
  <circle cx="128" cy="142" r="3" fill="#374151"/>
  
  <!-- IoT sensors -->
  <circle cx="80" cy="145" r="3" fill="#3b82f6"/>
  <circle cx="100" cy="145" r="3" fill="#3b82f6"/>
  <circle cx="160" cy="145" r="3" fill="#3b82f6"/>
  <circle cx="190" cy="145" r="3" fill="#3b82f6"/>
  
  <!-- Signal waves -->
  <circle cx="80" cy="145" r="6" stroke="#3b82f6" stroke-width="1" fill="none" opacity="0.5"/>
  <circle cx="160" cy="145" r="6" stroke="#3b82f6" stroke-width="1" fill="none" opacity="0.5"/>
  
  <!-- Efficiency indicators -->
  <rect x="20" y="40" width="60" height="40" fill="rgba(255,255,255,0.9)" rx="8"/>
  <text x="50" y="55" fill="#d97706" font-family="Arial" font-size="10" font-weight="bold" text-anchor="middle">EFFICIENCY</text>
  <text x="50" y="68" fill="#059669" font-family="Arial" font-size="16" font-weight="bold" text-anchor="middle">98.5%</text>
  <circle cx="40" cy="72" r="2" fill="#10b981"/>
  <text x="45" cy="75" fill="#10b981" font-family="Arial" font-size="6">↗ +15%</text>
</svg>
